<svg version="1.2" xmlns="http://www.w3.org/2000/svg" viewBox="0 0 32 32" width="32" height="32">
    <title>Moby Games</title>

    <defs>
        <g id="icon-moby">
            <path d="m20.7 9.8q0 0 0 0c0.2 1.5-0.9 2.8-2.4 3-1.6 0.1-2.9-1-3.1-2.5-0.1-1.5 1-2.9 2.5-3q0 0 0 0c1.5-0.2 2.9 1 3 2.5zm-1.2 0.1c-0.1-0.8-0.8-1.4-1.7-1.3q0 0 0 0c-0.8 0.1-1.4 0.8-1.3 1.6 0.1 0.8 0.8 1.4 1.6 1.3 0.8-0.1 1.4-0.8 1.4-1.6z"/>
            <path d="m17.3 9q0 0 0 0c-0.2 0.1-0.4 0.3-0.4 0.5 0 0.2 0.3 0.4 0.5 0.4 0.2 0 0.4-0.2 0.4-0.5-0.1-0.2-0.3-0.4-0.5-0.4z"/>
            <path d="m30.1 23.8c-1.5 0.9-8.8-3.4-8.8-3.4 0.1 0 1.5 2.1 3.6 3.2q0.5 0.2 1 0.4-1.7 3.5-5.5 5.1c-2.9 1.2-6.4 0.8-6.4 0.8-6.1-0.7-5.8-6.3-5.8-6.3-3-0.9-3.2-3.8-3.2-3.8 0 0 0.5 1.2 1.8 1.1 0.8-0.1 1.7 0 2.1 0.7 0 0 0.5-1 1.3-0.9 1.1 0.2 2.3-0.8 2.3-0.8 0.2 2.4-2.7 3.6-2.7 3.6 0 0 0.7 6.3 6.6 2.9 4-2.3 0.6-8.7-2.2-8.7-2.9 0.1-3.3-1.2-2-1.2 1.3 0 5-1 5-1 0 0-6 0.9-9.6-0.8-3.6-1.6-0.2-11.8 1.8-12.9 2.1-1 10.6 2.6 10.6 2.6 0 0 6.9 2.6 7.2 12.4q0 0.2 0 0.4-1-0.6-2.1-1.2c3.9 3 6.7 6.8 5 7.8zm-8.3-14.1q0 0 0 0c-0.2-2.1-2.1-3.6-4.2-3.4q0 0 0 0c-2.1 0.2-3.6 2-3.4 4.1 0.2 2.1 2.1 3.6 4.2 3.4 2.1-0.2 3.6-2 3.4-4.1z"/>
        </g>
    </defs>

    <rect fill="transparent" class="hoverable" x="0" y="0" width="32" height="32"/>

    <g class="rainbow">
        <use xlink:href="#icon-moby" />
        <use xlink:href="#icon-moby" />
        <use xlink:href="#icon-moby" />
        <use xlink:href="#icon-moby" />
        <use xlink:href="#icon-moby" />
        <use xlink:href="#icon-moby" />
        <use xlink:href="#icon-moby" />
    </g>

    <g class="radiate">
        <use xlink:href="#icon-moby" />
        <use xlink:href="#icon-moby" />
    </g>


    <use class="main" xlink:href="#icon-moby" />
</svg>