<!-- Generated by IcoMoon.io -->
<svg version="1.1" xmlns="http://www.w3.org/2000/svg" xmlns:xlink="http://www.w3.org/1999/xlink" width="32" height="32" viewBox="0 0 32 32">
    <style>
        g {
            pointer-events: none;
            z-index: -1;
        }
        g + use {
            pointer-events: none;
            transition: transform 200ms, fill 200ms;
            transform-origin: 50% 50%;
        }
        #icon-github-hoverable:hover + g use {
            animation-name: floatOff;
        }
        #icon-github-hoverable:hover + g + use {
            stroke: #fff9;
            stroke-width: 0.8px;
            stroke-location: outside;
            fill: black;
            transform: scale(1.2);
        }

        g use {
            opacity: 0;
            animation: floatOff 800ms ease-in infinite reverse;
            animation-name: none;
            transform: translate(2em, -1em) scale(2);
            transform-origin: 50% 50%;
            fill: red;
        }
        g use:nth-child(2) {
            transform: translate(-1em, 2em) scale(2);
            fill: blue;
            animation-delay: 100ms;
        }
        g use:nth-child(3) {
            transform: translate(-1em, -2em) scale(2);
            fill: green;
            animation-delay: 200ms;
        }
        g use:nth-child(4) {
            transform: translate(1.8em, 0.8em) scale(2);
            fill: orange;
            animation-delay: 300ms;
        }
        g use:nth-child(5) {
            transform: translate(-1.5em, 0.5em) scale(2);
            fill: red;
            animation-delay: 400ms;
        }
        g use:nth-child(6) {
            transform: translate(1em, 2em) scale(2);
            fill: pink;
            animation-delay: 500ms;
        }
        g use:nth-child(7) {
            transform: translate(0.2em, -1.5em) scale(2);
            fill: yellow;
            animation-delay: 600ms;
        }

        @keyframes floatOff {
            70% {
                opacity: 1;
            }
            100% {
                transform: translate(0, 0);
                opacity: 1;
                fill: unset;
            }
        }
    </style>
    <defs>
        <path id="icon-github" d="M16 0.395c-8.836 0-16 7.163-16 16 0 7.069 4.585 13.067 10.942 15.182 0.8 0.148 1.094-0.347 1.094-0.77 0-0.381-0.015-1.642-0.022-2.979-4.452 0.968-5.391-1.888-5.391-1.888-0.728-1.849-1.776-2.341-1.776-2.341-1.452-0.993 0.11-0.973 0.11-0.973 1.606 0.113 2.452 1.649 2.452 1.649 1.427 2.446 3.743 1.739 4.656 1.33 0.143-1.034 0.558-1.74 1.016-2.14-3.554-0.404-7.29-1.777-7.29-7.907 0-1.747 0.625-3.174 1.649-4.295-0.166-0.403-0.714-2.030 0.155-4.234 0 0 1.344-0.43 4.401 1.64 1.276-0.355 2.645-0.532 4.005-0.539 1.359 0.006 2.729 0.184 4.008 0.539 3.054-2.070 4.395-1.64 4.395-1.64 0.871 2.204 0.323 3.831 0.157 4.234 1.026 1.12 1.647 2.548 1.647 4.295 0 6.145-3.743 7.498-7.306 7.895 0.574 0.497 1.085 1.47 1.085 2.963 0 2.141-0.019 3.864-0.019 4.391 0 0.426 0.288 0.925 1.099 0.768 6.354-2.118 10.933-8.113 10.933-15.18 0-8.837-7.164-16-16-16z"></path>
    </defs>


    <rect fill="transparent" id="icon-github-hoverable" x="0" y="0" width="32" height="32"/>

    <g>
        <use xlink:href="#icon-github" />
        <use xlink:href="#icon-github" />
        <use xlink:href="#icon-github" />
        <use xlink:href="#icon-github" />
        <use xlink:href="#icon-github" />
        <use xlink:href="#icon-github" />
        <use xlink:href="#icon-github" />
    </g>


    <use xlink:href="#icon-github" />
</svg>
