<svg id="Layer_1" data-name="Layer 1" xmlns="http://www.w3.org/2000/svg" viewBox="0 0 32 32"><title>instagram-fill</title><path d="M16,0c-4.34,0-4.89,0-6.59.09A11.62,11.62,0,0,0,5.53.84,7.7,7.7,0,0,0,2.69,2.69,7.74,7.74,0,0,0,.84,5.52,11.67,11.67,0,0,0,.09,9.4C0,11.11,0,11.66,0,16s0,4.89.09,6.59a11.74,11.74,0,0,0,.75,3.89,7.66,7.66,0,0,0,1.85,2.83,7.87,7.87,0,0,0,2.83,1.85,11.7,11.7,0,0,0,3.88.74C11.11,32,11.65,32,16,32s4.89,0,6.6-.09a11.91,11.91,0,0,0,3.88-.74,7.87,7.87,0,0,0,2.83-1.85,7.71,7.71,0,0,0,1.84-2.83,11.67,11.67,0,0,0,.75-3.88C32,20.89,32,20.35,32,16s0-4.89-.09-6.6a11.62,11.62,0,0,0-.75-3.88,7.4,7.4,0,0,0-1.83-2.84A7.79,7.79,0,0,0,26.48.84,11.7,11.7,0,0,0,22.6.1C20.89,0,20.34,0,16,0Z"/></svg>